<svg width="60" height="47" viewBox="0 0 60 47" fill="none" xmlns="http://www.w3.org/2000/svg">
<path d="M6.51059 36.3256C3.84722 35.5118 1.70172 34.55 0.0740967 33.2923L2.95942 27.0038C4.51306 28.1135 6.36263 29.0753 8.50813 29.7412C10.6536 30.407 12.7991 30.7769 14.9446 30.7769C17.3121 30.7769 19.0877 30.407 20.1974 29.7412C21.3071 29.0013 21.899 28.1135 21.899 26.9298C21.899 26.042 21.5291 25.3762 20.8632 24.7843C20.1974 24.1925 19.3096 23.7486 18.2738 23.3786C17.2381 23.0087 15.7584 22.6388 13.9828 22.2689C11.2455 21.6031 8.95202 20.9372 7.17644 20.2714C5.40085 19.6055 3.9212 18.5698 2.66349 17.0901C1.40579 15.6105 0.739941 13.6869 0.739941 11.3195C0.739941 9.24795 1.3318 7.3244 2.44154 5.6228C3.55128 3.9212 5.32687 2.58951 7.62033 1.55375C9.9138 0.517993 12.7251 0.0740967 16.0544 0.0740967C18.3478 0.0740967 20.6413 0.370028 22.8608 0.887906C25.0803 1.40579 27.0038 2.2196 28.6314 3.25535L26.042 9.61787C22.7128 7.69431 19.3096 6.73254 15.9804 6.73254C13.6129 6.73254 11.9113 7.10245 10.8016 7.84228C9.69185 8.58211 9.09999 9.61786 9.09999 10.8756C9.09999 12.1333 9.76583 13.0211 11.0235 13.6129C12.3552 14.2048 14.2788 14.7967 16.9422 15.3885C19.6795 16.0544 21.973 16.7202 23.7486 17.386C25.5241 18.0519 27.0038 19.0877 28.2615 20.4933C29.5192 21.899 30.1851 23.8225 30.1851 26.264C30.1851 28.3355 29.5932 30.259 28.4835 31.9606C27.2997 33.6622 25.5981 34.9939 23.3047 36.0297C21.0112 37.0654 18.1999 37.5093 14.8706 37.5093C11.9853 37.5093 9.17397 37.1394 6.51059 36.3256Z" fill="#1E1E1E"/>
<path d="M59.926 30.185V36.9174H31.8126V0.665894H59.1862V7.39832H40.1726V15.2405H56.9667V21.751H40.1726V30.111H59.926V30.185Z" fill="#1E1E1E"/>
<path d="M60 40.4686H0V46.6831H60V40.4686Z" fill="#1E1E1E"/>
</svg>
